<svg xmlns="http://www.w3.org/2000/svg" xmlns:xlink="http://www.w3.org/1999/xlink" contentStyleType="text/css" data-diagram-type="DESCRIPTION" height="1110px" preserveAspectRatio="none" style="width:676px;height:1110px;background:#FFFFFF;" version="1.1" viewBox="0 0 676 1110" width="676px" zoomAndPan="magnify"><?plantuml 1.2026.7beta1?><defs/><g><!--cluster Nexus Games--><g class="cluster" data-qualified-name="Nexus Games" data-source-line="9" id="ent0004"><rect fill="none" height="1089" rx="2.5" ry="2.5" style="stroke:#181818;stroke-width:1;" width="266.21" x="395.84" y="7"/><text fill="#000000" font-family="sans-serif" font-size="14" font-weight="700" lengthAdjust="spacing" textLength="106.7705" x="475.5597" y="21.9951">Nexus Games</text></g><!--entity UC1--><g class="entity" data-qualified-name="Nexus Games.UC1" data-source-line="10" id="ent0005"><ellipse cx="528.95" cy="520.004" fill="#F1F1F1" rx="78.97" ry="18.194" style="stroke:#181818;stroke-width:0.5;"/><text fill="#000000" font-family="sans-serif" font-size="14" lengthAdjust="spacing" textLength="128.2422" x="464.8289" y="524.6524">Rechercher un jeu</text></g><!--entity UC2--><g class="entity" data-qualified-name="Nexus Games.UC2" data-source-line="11" id="ent0006"><ellipse cx="528.953" cy="446.9986" fill="#F1F1F1" rx="88.043" ry="20.0086" style="stroke:#181818;stroke-width:0.5;"/><text fill="#000000" font-family="sans-serif" font-size="14" lengthAdjust="spacing" textLength="149.2969" x="454.3046" y="451.647">Voir le d&#233;tail d'un jeu</text></g><!--entity UC3--><g class="entity" data-qualified-name="Nexus Games.UC3" data-source-line="12" id="ent0007"><ellipse cx="528.9461" cy="368.9992" fill="#F1F1F1" rx="102.1461" ry="22.8292" style="stroke:#181818;stroke-width:0.5;"/><text fill="#000000" font-family="sans-serif" font-size="14" lengthAdjust="spacing" textLength="180.7764" x="438.5579" y="373.6477">Acc&#233;der &#224; la page &#233;diteur</text></g><!--entity UC4--><g class="entity" data-qualified-name="Nexus Games.UC4" data-source-line="13" id="ent0008"><ellipse cx="528.9458" cy="287.0032" fill="#F1F1F1" rx="107.2158" ry="23.8432" style="stroke:#181818;stroke-width:0.5;"/><text fill="#000000" font-family="sans-serif" font-size="14" lengthAdjust="spacing" textLength="191.8438" x="433.0239" y="291.6516">Rechercher des utilisateurs</text></g><!--entity UC5--><g class="entity" data-qualified-name="Nexus Games.UC5" data-source-line="14" id="ent0009"><ellipse cx="528.9509" cy="203.0002" fill="#F1F1F1" rx="115.5509" ry="25.5102" style="stroke:#181818;stroke-width:0.5;"/><text fill="#000000" font-family="sans-serif" font-size="14" lengthAdjust="spacing" textLength="209.8359" x="424.0329" y="207.6486">Consulter des listes publiques</text></g><!--entity UC6--><g class="entity" data-qualified-name="Nexus Games.UC6" data-source-line="16" id="ent0010"><ellipse cx="528.9465" cy="126.9993" fill="#F1F1F1" rx="64.4965" ry="15.2993" style="stroke:#181818;stroke-width:0.5;"/><text fill="#000000" font-family="sans-serif" font-size="14" lengthAdjust="spacing" textLength="92.1279" x="482.8825" y="131.6477">Se connecter</text></g><!--entity UC7--><g class="entity" data-qualified-name="Nexus Games.UC7" data-source-line="17" id="ent0011"><ellipse cx="528.9507" cy="59.0041" fill="#F1F1F1" rx="74.7207" ry="17.3441" style="stroke:#181818;stroke-width:0.5;"/><text fill="#000000" font-family="sans-serif" font-size="14" lengthAdjust="spacing" textLength="118.0498" x="469.9258" y="63.6526">Cr&#233;er un compte</text></g><!--entity UC8--><g class="entity" data-qualified-name="Nexus Games.UC8" data-source-line="19" id="ent0012"><ellipse cx="528.9477" cy="595.9975" fill="#F1F1F1" rx="100.0877" ry="22.4175" style="stroke:#181818;stroke-width:0.5;"/><text fill="#000000" font-family="sans-serif" font-size="14" lengthAdjust="spacing" textLength="176.251" x="440.8222" y="600.646">Ajouter un jeu &#224; une liste</text></g><!--entity UC9--><g class="entity" data-qualified-name="Nexus Games.UC9" data-source-line="20" id="ent0013"><ellipse cx="528.9472" cy="669.9994" fill="#F1F1F1" rx="68.6472" ry="16.1294" style="stroke:#181818;stroke-width:0.5;"/><text fill="#000000" font-family="sans-serif" font-size="14" lengthAdjust="spacing" textLength="102.9492" x="477.4726" y="674.6479">Cr&#233;er une liste</text></g><!--entity UC10--><g class="entity" data-qualified-name="Nexus Games.UC10" data-source-line="21" id="ent0014"><ellipse cx="528.9509" cy="745.9962" fill="#F1F1F1" rx="110.2309" ry="24.4462" style="stroke:#181818;stroke-width:0.5;"/><text fill="#000000" font-family="sans-serif" font-size="14" lengthAdjust="spacing" textLength="198.3789" x="429.7615" y="750.6446">Supprimer un jeu d'une liste</text></g><!--entity UC11--><g class="entity" data-qualified-name="Nexus Games.UC11" data-source-line="22" id="ent0015"><ellipse cx="528.9542" cy="831.0008" fill="#F1F1F1" rx="117.1042" ry="25.8208" style="stroke:#181818;stroke-width:0.5;"/><text fill="#000000" font-family="sans-serif" font-size="14" lengthAdjust="spacing" textLength="213.165" x="422.3716" y="835.6493">Modifier la visibilit&#233; d'une liste</text></g><!--entity UC12--><g class="entity" data-qualified-name="Nexus Games.UC12" data-source-line="23" id="ent0016"><ellipse cx="528.9548" cy="907.997" fill="#F1F1F1" rx="68.6848" ry="16.137" style="stroke:#181818;stroke-width:0.5;"/><text fill="#000000" font-family="sans-serif" font-size="14" lengthAdjust="spacing" textLength="103.0449" x="477.4323" y="912.6454">Publier un avis</text></g><!--entity UC13--><g class="entity" data-qualified-name="Nexus Games.UC13" data-source-line="24" id="ent0017"><ellipse cx="528.9522" cy="976.9984" fill="#F1F1F1" rx="78.0922" ry="18.0184" style="stroke:#181818;stroke-width:0.5;"/><text fill="#000000" font-family="sans-serif" font-size="14" lengthAdjust="spacing" textLength="126.1572" x="465.8736" y="981.6469">Modifier son profil</text></g><!--entity UC14--><g class="entity" data-qualified-name="Nexus Games.UC14" data-source-line="25" id="ent0018"><ellipse cx="528.9512" cy="1055.0022" fill="#F1F1F1" rx="111.8612" ry="24.7722" style="stroke:#181818;stroke-width:0.5;"/><text fill="#000000" font-family="sans-serif" font-size="14" lengthAdjust="spacing" textLength="201.8994" x="428.0015" y="1059.6507">Exporter ses donn&#233;es (JSON)</text></g><!--entity Anon--><g class="entity" data-qualified-name="Anon" data-source-line="4" id="ent0001"><ellipse cx="280.4024" cy="305.85" fill="#F1F1F1" rx="16" ry="16" style="stroke:#181818;stroke-width:0.5;"/><path d="M280.4024,325.85 C284.4024,325.85 287.4024,325.85 291.4024,321.85 C299.4024,321.85 307.4024,329.85 307.4024,337.85 L307.4024,341.85 C307.4024,345.85 303.4024,349.85 299.4024,349.85 L261.4024,349.85 C257.4024,349.85 253.4024,345.85 253.4024,341.85 L253.4024,337.85 C253.4024,329.85 261.4024,321.85 269.4024,321.85 C273.4024,325.85 276.4024,325.85 280.4024,325.85" fill="#F1F1F1" style="stroke:#181818;stroke-width:0.5;"/><text fill="#000000" font-family="sans-serif" font-size="14" lengthAdjust="spacing" textLength="142.8848" x="208.96" y="363.3451">Utilisateur Anonyme</text></g><!--entity Auth--><g class="entity" data-qualified-name="Auth" data-source-line="5" id="ent0002"><ellipse cx="77.48" cy="763.85" fill="#F1F1F1" rx="16" ry="16" style="stroke:#181818;stroke-width:0.5;"/><path d="M77.48,783.85 C81.48,783.85 84.48,783.85 88.48,779.85 C96.48,779.85 104.48,787.85 104.48,795.85 L104.48,799.85 C104.48,803.85 100.48,807.85 96.48,807.85 L58.48,807.85 C54.48,807.85 50.48,803.85 50.48,799.85 L50.48,795.85 C50.48,787.85 58.48,779.85 66.48,779.85 C70.48,783.85 73.48,783.85 77.48,783.85" fill="#F1F1F1" style="stroke:#181818;stroke-width:0.5;"/><text fill="#000000" font-family="sans-serif" font-size="14" lengthAdjust="spacing" textLength="142.96" x="6" y="821.3451">Utilisateur Connect&#233;</text></g><!--link Auth to Anon--><g class="link" data-entity-1="ent0002" data-entity-2="ent0001" data-link-type="extension" data-source-line="7" id="lnk3"><path d="M95.61,746.95 C133.57,660.42 217.1689,469.8736 255.0889,383.4336" fill="none" id="Auth-to-Anon" style="stroke:#181818;stroke-width:1;"/><polygon fill="none" points="262.32,366.95,249.5943,381.0233,260.5834,385.844,262.32,366.95" style="stroke:#181818;stroke-width:1;stroke-linejoin:miter;stroke-miterlimit:10;"/></g><!--link Anon to UC1--><g class="link" data-entity-1="ent0001" data-entity-2="ent0005" data-link-type="dependency" data-source-line="28" id="lnk19"><path d="M297.83,366.99 C315.03,403.05 345.47,455.39 387.84,485 C407.88,499 428.093,506.3532 451.493,511.4132" fill="none" id="Anon-to-UC1" style="stroke:#181818;stroke-width:1;"/><polygon fill="#181818" points="456.38,512.47,448.4287,506.6582,451.493,511.4132,446.7379,514.4774,456.38,512.47" style="stroke:#181818;stroke-width:1;stroke-linejoin:miter;stroke-miterlimit:10;"/></g><!--link Anon to UC2--><g class="link" data-entity-1="ent0001" data-entity-2="ent0006" data-link-type="dependency" data-source-line="29" id="lnk20"><path d="M324.69,367.01 C343.09,381.92 365.45,397.97 387.84,409 C410.34,420.08 431.6588,427.0793 455.2588,432.9693" fill="none" id="Anon-to-UC2" style="stroke:#181818;stroke-width:1;"/><polygon fill="#181818" points="460.11,434.18,452.3464,428.1197,455.2588,432.9693,450.4093,435.8816,460.11,434.18" style="stroke:#181818;stroke-width:1;stroke-linejoin:miter;stroke-miterlimit:10;"/></g><!--link Anon to UC3--><g class="link" data-entity-1="ent0001" data-entity-2="ent0007" data-link-type="dependency" data-source-line="30" id="lnk21"><path d="M352.05,339.75 C381.37,344.62 410.6278,349.4893 441.0378,354.5493" fill="none" id="Anon-to-UC3" style="stroke:#181818;stroke-width:1;"/><polygon fill="#181818" points="445.97,355.37,437.7486,349.947,441.0378,354.5493,436.4355,357.8385,445.97,355.37" style="stroke:#181818;stroke-width:1;stroke-linejoin:miter;stroke-miterlimit:10;"/></g><!--link Anon to UC4--><g class="link" data-entity-1="ent0001" data-entity-2="ent0008" data-link-type="dependency" data-source-line="31" id="lnk22"><path d="M352.05,316.25 C380.08,311.59 407.6576,306.9993 437.0376,302.1193" fill="none" id="Anon-to-UC4" style="stroke:#181818;stroke-width:1;"/><polygon fill="#181818" points="441.97,301.3,432.4362,298.8288,437.0376,302.1193,433.7471,306.7206,441.97,301.3" style="stroke:#181818;stroke-width:1;stroke-linejoin:miter;stroke-miterlimit:10;"/></g><!--link Anon to UC5--><g class="link" data-entity-1="ent0001" data-entity-2="ent0009" data-link-type="dependency" data-source-line="32" id="lnk23"><path d="M324.81,288.86 C343.23,273.82 365.57,257.52 387.84,246 C406.94,236.13 423.9216,229.5621 444.5016,223.2221" fill="none" id="Anon-to-UC5" style="stroke:#181818;stroke-width:1;"/><polygon fill="#181818" points="449.28,221.75,439.5012,220.577,444.5016,223.2221,441.8565,228.2224,449.28,221.75" style="stroke:#181818;stroke-width:1;stroke-linejoin:miter;stroke-miterlimit:10;"/></g><!--link Anon to UC6--><g class="link" data-entity-1="ent0001" data-entity-2="ent0010" data-link-type="dependency" data-source-line="33" id="lnk24"><path d="M295.79,289.08 C312.13,250.38 342.56,192.24 387.84,160 C410.64,143.77 435.3747,136.2218 461.5347,131.9718" fill="none" id="Anon-to-UC6" style="stroke:#181818;stroke-width:1;"/><polygon fill="#181818" points="466.47,131.17,456.945,128.665,461.5347,131.9718,458.2279,136.5615,466.47,131.17" style="stroke:#181818;stroke-width:1;stroke-linejoin:miter;stroke-miterlimit:10;"/></g><!--link Anon to UC7--><g class="link" data-entity-1="ent0001" data-entity-2="ent0011" data-link-type="dependency" data-source-line="34" id="lnk25"><path d="M288.31,288.9 C299.65,236.54 327.31,144.41 387.84,94 C407.21,77.88 428.0564,69.9971 452.1964,65.1871" fill="none" id="Anon-to-UC7" style="stroke:#181818;stroke-width:1;"/><polygon fill="#181818" points="457.1,64.21,447.4919,62.0458,452.1964,65.1871,449.0552,69.8916,457.1,64.21" style="stroke:#181818;stroke-width:1;stroke-linejoin:miter;stroke-miterlimit:10;"/></g><!--link Auth to UC8--><g class="link" data-entity-1="ent0002" data-entity-2="ent0012" data-link-type="dependency" data-source-line="36" id="lnk26"><path d="M131.34,747 C154.42,731.09 182.26,713.33 208.96,700 C290.78,659.14 387.3767,630.5219 453.5967,613.5419" fill="none" id="Auth-to-UC8" style="stroke:#181818;stroke-width:1;"/><polygon fill="#181818" points="458.44,612.3,448.7285,610.6608,453.5967,613.5419,450.7156,618.4101,458.44,612.3" style="stroke:#181818;stroke-width:1;stroke-linejoin:miter;stroke-miterlimit:10;"/></g><!--link Auth to UC9--><g class="link" data-entity-1="ent0002" data-entity-2="ent0013" data-link-type="dependency" data-source-line="37" id="lnk27"><path d="M149.22,761.36 C168.48,755.01 189.43,748.44 208.96,743 C301.86,717.12 406.9116,694.4728 470.4616,681.4628" fill="none" id="Auth-to-UC9" style="stroke:#181818;stroke-width:1;"/><polygon fill="#181818" points="475.36,680.46,465.7406,678.3463,470.4616,681.4628,467.3451,686.1838,475.36,680.46" style="stroke:#181818;stroke-width:1;stroke-linejoin:miter;stroke-miterlimit:10;"/></g><!--link Auth to UC10--><g class="link" data-entity-1="ent0002" data-entity-2="ent0014" data-link-type="dependency" data-source-line="38" id="lnk28"><path d="M149.2,779.71 C223.62,773.08 336.4597,763.0434 420.9297,755.5234" fill="none" id="Auth-to-UC10" style="stroke:#181818;stroke-width:1;"/><polygon fill="#181818" points="425.91,755.08,416.5908,751.8938,420.9297,755.5234,417.3002,759.8623,425.91,755.08" style="stroke:#181818;stroke-width:1;stroke-linejoin:miter;stroke-miterlimit:10;"/></g><!--link Auth to UC11--><g class="link" data-entity-1="ent0002" data-entity-2="ent0015" data-link-type="dependency" data-source-line="39" id="lnk29"><path d="M149.2,793.08 C222.38,800.41 332.5548,811.4421 416.6948,819.8621" fill="none" id="Auth-to-UC11" style="stroke:#181818;stroke-width:1;"/><polygon fill="#181818" points="421.67,820.36,413.113,815.4837,416.6948,819.8621,412.3164,823.444,421.67,820.36" style="stroke:#181818;stroke-width:1;stroke-linejoin:miter;stroke-miterlimit:10;"/></g><!--link Auth to UC12--><g class="link" data-entity-1="ent0002" data-entity-2="ent0016" data-link-type="dependency" data-source-line="40" id="lnk30"><path d="M149.22,806.97 C211.79,825.32 305.63,852.34 387.84,874 C417.98,881.94 447.075,889.046 474.015,895.436" fill="none" id="Auth-to-UC12" style="stroke:#181818;stroke-width:1;"/><polygon fill="#181818" points="478.88,896.59,471.0461,890.6209,474.015,895.436,469.1998,898.4049,478.88,896.59" style="stroke:#181818;stroke-width:1;stroke-linejoin:miter;stroke-miterlimit:10;"/></g><!--link Auth to UC13--><g class="link" data-entity-1="ent0002" data-entity-2="ent0017" data-link-type="dependency" data-source-line="41" id="lnk31"><path d="M133.2,825.14 C156.01,840.51 183.15,857.64 208.96,871 C284.93,910.32 306.42,915.8 387.84,942 C414.81,950.68 440.4039,957.3605 466.0139,963.4105" fill="none" id="Auth-to-UC13" style="stroke:#181818;stroke-width:1;"/><polygon fill="#181818" points="470.88,964.56,463.0407,958.598,466.0139,963.4105,461.2015,966.3837,470.88,964.56" style="stroke:#181818;stroke-width:1;stroke-linejoin:miter;stroke-miterlimit:10;"/></g><!--link Auth to UC14--><g class="link" data-entity-1="ent0002" data-entity-2="ent0018" data-link-type="dependency" data-source-line="42" id="lnk32"><path d="M104.19,825.14 C127.99,858.82 166.08,906.79 208.96,938 C280.38,989.99 372.5373,1019.9852 440.7673,1036.9252" fill="none" id="Auth-to-UC14" style="stroke:#181818;stroke-width:1;"/><polygon fill="#181818" points="445.62,1038.13,437.849,1032.0792,440.7673,1036.9252,435.9213,1039.8435,445.62,1038.13" style="stroke:#181818;stroke-width:1;stroke-linejoin:miter;stroke-miterlimit:10;"/></g><?plantuml-src TPBRJi9048RlzoactAWN9dAM6n92Z8c9Q2HulxG3BBQxTGyAKT_5MvwZB-Rq1Bi9Nb3wjz_yE_Dt4bnPi0gqM6yin49ZP8MIpBm9cN7DK-2HLNfkzma2_qIZKcIiV0QjXHM9CDoYqp2HIkvJR04tvVqvPgga9F_yK57ERXWhhd1z_JskgbZH09ThEgqrmvqpSCzJD2tuOW3EOCGDlNd1Q8Ew-86Ji4LN6YwcRHzwLK83-SJvmNAHG7mHi1sVdKHHVeZ9Bl-5X4F6rmZqG1HjrtptdmPYDE1EGveQx_au3MvSOckQK4j_cLicujrXKz5dViaS8QhYmgQ3GM2fyqCrVgJIp6BD30EJoLOvUmof6Cv9hCwl-TkpdY4p2lfoMQP5UZ8jOWtvzerVyAXYiHB4KwuVmeWbHKKhSAuk-7pFHJpLCPpg6gPprjie2PbMAv4qNF2vxdQPqaKGXdAFALQQqy3bm_nfTjKKzDWFRIFj86tZkDmbJtHyqVL5pnTzNmnyCJnk-hXCtHCZNr1slce7gXEeRg1wVm00?></g></svg>